<?xml version="1.0" standalone="no"?>
<!DOCTYPE svg PUBLIC "-//W3C//DTD SVG 20010904//EN"
 "http://www.w3.org/TR/2001/REC-SVG-20010904/DTD/svg10.dtd">
<svg version="1.0" xmlns="http://www.w3.org/2000/svg"
 width="320.000000pt" height="172.000000pt" viewBox="0 0 320.000000 172.000000"
 preserveAspectRatio="xMidYMid meet">
<metadata>
Created by potrace 1.11, written by Peter Selinger 2001-2013
</metadata>
<g transform="translate(0.000000,172.000000) scale(0.100000,-0.100000)"
fill="#000000" stroke="none">
<path d="M895 1323 c-207 -50 -365 -178 -365 -296 0 -92 32 -115 249 -176 150
-42 199 -68 226 -121 20 -38 19 -80 -1 -109 -21 -30 -89 -60 -134 -61 -51 0
-120 38 -155 87 -16 23 -33 42 -36 42 -14 2 -136 -80 -153 -102 -18 -24 -18
-28 -3 -50 42 -64 162 -99 275 -79 186 31 401 212 402 337 0 42 -33 91 -77
114 -21 10 -99 35 -173 56 -140 38 -178 56 -220 100 -37 39 -33 100 8 136 62
55 151 47 216 -20 l38 -39 74 42 c45 25 74 47 74 58 0 23 -53 65 -98 78 -38
10 -110 12 -147 3z"/>
<path d="M1995 1193 c-37 -25 -38 -27 -17 -34 21 -8 22 -13 22 -166 l0 -157
23 22 c13 14 22 35 22 54 0 48 18 44 64 -17 23 -30 45 -55 48 -55 4 0 15 7 24
16 17 16 16 19 -26 68 -25 28 -45 56 -45 61 0 6 14 24 30 40 17 16 30 34 30
41 0 22 -40 27 -60 9 -16 -14 -17 -20 -7 -37 10 -17 8 -23 -18 -45 l-30 -26
-5 120 c-3 67 -8 124 -11 127 -3 3 -23 -6 -44 -21z"/>
<path d="M1203 1187 c-37 -25 -42 -35 -15 -33 15 1 17 -14 22 -154 l5 -154 19
29 c102 160 143 165 161 18 l7 -52 25 16 c24 16 25 20 19 82 -9 91 -24 141
-43 148 -12 5 -35 -13 -79 -60 -34 -37 -63 -67 -65 -67 -2 0 -3 46 -1 102 3
101 -2 149 -16 147 -4 0 -22 -10 -39 -22z"/>
<path d="M1558 1071 c-23 -23 -23 -30 2 -24 64 17 124 -152 61 -172 -41 -13
-81 31 -84 91 -2 40 -10 43 -31 12 -24 -34 -20 -85 9 -113 27 -28 58 -31 95
-10 14 8 35 14 48 15 22 0 22 -1 22 -162 0 -160 0 -161 20 -143 13 12 20 31
20 57 0 54 19 49 69 -17 26 -34 47 -53 54 -49 38 22 37 26 -13 82 l-50 56 37
38 c30 31 34 40 23 53 -16 19 -29 19 -51 -1 -14 -13 -16 -20 -6 -34 9 -15 7
-23 -7 -39 -11 -12 -27 -21 -38 -21 -16 0 -18 10 -18 118 1 110 2 115 15 85
27 -64 89 -68 151 -10 59 55 62 126 8 181 -31 30 -54 33 -89 10 -30 -20 -33
-34 -5 -27 64 17 124 -152 61 -172 -41 -13 -81 31 -84 91 -2 40 -16 40 -37 -2
-8 -16 -29 -39 -48 -52 l-33 -22 16 22 c8 13 15 41 15 63 0 86 -83 146 -132
96z"/>
<path d="M1244 776 l-28 -23 31 4 c28 5 34 1 57 -39 28 -47 34 -106 14 -126
-34 -34 -93 11 -104 79 l-7 42 -18 -24 c-27 -35 -24 -81 7 -114 21 -22 31 -26
57 -21 68 14 117 72 117 140 0 30 -7 45 -34 72 -40 40 -56 42 -92 10z"/>
<path d="M1484 776 l-28 -23 31 4 c28 5 34 1 57 -39 28 -47 34 -106 14 -126
-34 -34 -93 11 -104 79 l-7 42 -18 -24 c-27 -35 -24 -81 7 -114 21 -22 31 -26
57 -21 68 14 117 72 117 140 0 30 -7 45 -34 72 -40 40 -56 42 -92 10z"/>
</g>
</svg>
